<?xml version="1.0" encoding="utf-8"?>
<!-- Generator: Adobe Illustrator 18.1.1, SVG Export Plug-In . SVG Version: 6.00 Build 0)  -->
<!DOCTYPE svg PUBLIC "-//W3C//DTD SVG 1.1//EN" "http://www.w3.org/Graphics/SVG/1.1/DTD/svg11.dtd">
<svg version="1.1" id="Layer_1" xmlns="http://www.w3.org/2000/svg" xmlns:xlink="http://www.w3.org/1999/xlink" x="0px" y="0px"
	 viewBox="0 0 595.3 571.6" enable-background="new 0 0 595.3 571.6" xml:space="preserve">
<path fill="#364B56" d="M75.2,291.5c0-121.9,98.8-220.7,220.7-220.7s220.7,98.8,220.7,220.7s-98.8,220.7-220.7,220.7
	S75.2,413.4,75.2,291.5z M443.4,291.5c0-81.4-66.2-147.6-147.6-147.6s-147.6,66.2-147.6,147.6s66.2,147.6,147.6,147.6
	S443.4,372.9,443.4,291.5z M366.3,396.2c-1.3-7.7-8-44.6-24.5-89.9c39.5-6.3,74.2,4,78.5,5.4C414.7,346.8,394.5,377.1,366.3,396.2z
	 M295.8,417.7c-29.1,0-56-9.9-77.4-26.6c2.3-4.6,27.8-53.9,98.9-78.7c0.3-0.1,0.6-0.2,0.8-0.3c17.7,46,25,84.5,26.9,95.6
	C329.9,414.2,313.3,417.7,295.8,417.7z M169.8,291.7c0-1.3,0-2.6,0.1-3.9c5.5,0.1,66.6,0.9,129.5-17.9c3.6,7.1,7.1,14.2,10.2,21.4
	c-1.7,0.5-3.3,1-5,1.5c-65,21-99.6,78.3-102.5,83.2C182.1,353.6,169.8,324.1,169.8,291.7z M242.2,177.6c3.3,4.6,25.8,35.8,46.7,72.9
	c-59,15.7-110.9,15.4-116.5,15.4C180.6,226.8,207,194.3,242.2,177.6z M295.8,165.7c32,0,61.3,12,83.6,31.8
	c-2.3,3.2-21.2,28.7-66.1,45.5c-20.7-37.9-43.5-69.1-47-73.8C275.8,166.9,285.7,165.7,295.8,165.7z M421.9,290.5
	c-4.2-0.9-45.8-9.3-87.8-4.1c-0.9-2.2-1.8-4.3-2.7-6.5c-2.6-6.1-5.4-12.3-8.4-18.3c46.6-19,67.7-46.1,70.4-49.7
	C411,233.4,421.6,260.8,421.9,290.5z"/>
</svg>
