<?xml version="1.0" encoding="utf-8"?>
<!-- Generator: Adobe Illustrator 18.1.1, SVG Export Plug-In . SVG Version: 6.00 Build 0)  -->
<!DOCTYPE svg PUBLIC "-//W3C//DTD SVG 1.1//EN" "http://www.w3.org/Graphics/SVG/1.1/DTD/svg11.dtd">
<svg version="1.1" id="Layer_1" xmlns="http://www.w3.org/2000/svg" xmlns:xlink="http://www.w3.org/1999/xlink" x="0px" y="0px"
	 viewBox="37 110 229 99" enable-background="new 37 110 229 99" xml:space="preserve">
<g id="Layer_2">
	<g>
		<g>
			<g>
				<defs>
					<filter id="Adobe_OpacityMaskFilter" filterUnits="userSpaceOnUse" x="68.6" y="126.3" width="176.6" height="48.4">
						<feColorMatrix  type="matrix" values="1 0 0 0 0  0 1 0 0 0  0 0 1 0 0  0 0 0 1 0"/>
					</filter>
				</defs>
				<mask maskUnits="userSpaceOnUse" x="68.6" y="126.3" width="176.6" height="48.4" id="SVGID_1_">
					<g filter="url(#Adobe_OpacityMaskFilter)">
						
							<image overflow="visible" enable-background="new    " width="327" height="93" xlink:href="5E3C970137730741.jpeg"  transform="matrix(0.5484 0 0 0.5484 67.0162 124.829)">
						</image>
					</g>
				</mask>
				<g mask="url(#SVGID_1_)">
					<path fill="#6995B0" d="M243.2,146.9c0,0-64.8-6.5-86.5-9.1c-20.6-2.6-82.5-11.5-82.5-11.5s-2.1,1.5-3.3,2.7
						c-1.8,1.9-2.3,4.2-2.3,4.2l23.4,3.2l-21.5,10.2c-0.5,0.8-0.1,1.6,1.7,3.7c1.8,2,3.3,4.7,3.3,4.7s12.7-9.1,18.5-12.1
						c5.8-3,18.3-3.7,18.3-3.7s21.8,1.6,44.2,4.8c22.9,3.2,46.3,8,47.8,8.6c3.6,1.5,11.3,5.5,14,9.2c2.7,3.7,10.9,12.9,10.9,12.9
						l6.7-4.6l-24.2-19.6l33.2,5.2c0,0,0.7-1.9,0.2-4.8C244.8,149.8,243.2,146.9,243.2,146.9z"/>
				</g>
			</g>
			<g>
				<path fill="#6995B0" d="M156.7,132.1c4.2,0.1,11.2-0.6,13.7-0.9c3.1-0.4,25.3-5,35.5-4.5c10.2,0.5,15.1,1.6,21.3,2.7
					c9.6,1.8,17.8,5.5,21.5,7.4c5.4,2.7,9.5,4.8,10.1,7.8c0.8,3.6-2.2,8.4-4.4,11c-4.7,5.4-15.6,17.5-22.4,20.8
					c-6.8,3.3-22.2,7.8-37.9,4.8s-22.4-13.3-25-17.6c-1.9-3-5.9-17.2-7.1-19.9c-1.2-2.7-1.5-2.4-6-2.8c-4.5-0.4-4.2,0.1-5.9,1.4
					c-1.6,1.4-6.6,12.6-11.6,19.8c-5,7.2-19.6,12.1-34.4,11.6c-14.9-0.5-24.8-8.5-28.9-11.4c-4.7-3.2-12.6-14.2-15.8-19.7
					c-2.2-3.8-5.8-15.2-3.5-17.9c1.4-1.6,4.3-2.8,10.9-3.9c8.6-1.4,24-2.9,36.3-2.3c11,0.5,17.7,1.2,23.3,3.1
					c6.3,2.1,17.4,6.9,21.4,8.3C151.9,131.4,152.1,132,156.7,132.1z M107.5,123c-29.2-1.6-40.1,4.4-40.4,17.4
					c-0.3,11.7,17.3,28.4,37.5,30s37-10.8,37.2-24C142.1,132.6,130,124.3,107.5,123z M168.8,149.7c-1.3,13.2,14.6,29.2,34.8,30.1
					c20.3,0.8,39.7-13.5,40.9-25.2c1.3-12.9-8.4-21.1-37.7-23C184.3,130,170.2,136,168.8,149.7z"/>
				<path fill="#6995B0" d="M71.1,158.4c0,0-21.7,20-24.1,20c-1.1,0-2.6-1.1-3.2-1.9c-1.8-2.2-4.3-9.2-2.5-12.4
					c1.8-3.2,23.5-13.5,23.5-13.5L71.1,158.4z"/>
				<path fill="#6995B0" d="M232,176.4c0,0,18.2,28.6,18.5,29c1.4,1.9,3.3,1.5,4.4,0.8c3.1-2,7.5-10.3,6.1-13.9
					c-1.4-3.6-21.9-21-21.9-21L232,176.4z"/>
			</g>
		</g>
		<g>
			<circle fill="#FFFFFF" cx="59.2" cy="128.2" r="0.9"/>
			<circle fill="#FFFFFF" cx="63" cy="127.1" r="0.9"/>
			<circle fill="#FFFFFF" cx="61.9" cy="131.5" r="0.9"/>
		</g>
		<g>
			<circle fill="#FFFFFF" cx="255.8" cy="147" r="0.9"/>
			<circle fill="#FFFFFF" cx="252.8" cy="149.7" r="0.9"/>
			<circle fill="#FFFFFF" cx="251.9" cy="145.2" r="0.9"/>
		</g>
	</g>
</g>
<g id="Layer_3" display="none">
	
		<text transform="matrix(1 0 0 1 46.2645 103.3803)" display="inline" fill="#666666" font-family="'MrsEavesBold'" font-size="30.7998">Tamara McElroy</text>
	
		<text transform="matrix(1 0 0 1 106.434 207.4433)" display="inline" fill="#666666" font-family="'MrsEavesBold'" font-size="30.7998">Design</text>
</g>
</svg>
