<?xml version="1.0" encoding="utf-8"?>
<!-- Generator: Adobe Illustrator 18.1.1, SVG Export Plug-In . SVG Version: 6.00 Build 0)  -->
<!DOCTYPE svg PUBLIC "-//W3C//DTD SVG 1.1//EN" "http://www.w3.org/Graphics/SVG/1.1/DTD/svg11.dtd">
<svg version="1.1" id="Layer_1" xmlns="http://www.w3.org/2000/svg" xmlns:xlink="http://www.w3.org/1999/xlink" x="0px" y="0px"
	 viewBox="465 265 59.6 60" enable-background="new 465 265 59.6 60" xml:space="preserve">
<circle fill="#6995B0" cx="494.6" cy="295.5" r="20"/>
<g>
	<path fill="#FFFFFF" d="M487.6,307.9v-16.4h-5.4v16.4H487.6L487.6,307.9z M484.8,289.1c1.9,0,3.1-1.2,3.1-2.8s-1.2-2.8-3.1-2.8
		c-1.9,0-3.1,1.2-3.1,2.8S482.9,289.1,484.8,289.1L484.8,289.1L484.8,289.1z"/>
	<path fill="#FFFFFF" d="M490.5,307.9h5.4v-9.1c0-0.5,0-0.9,0.2-1.4c0.5-0.9,1.2-2,2.8-2c2,0,2.8,1.6,2.8,3.7v8.8h5.4v-9.5
		c0-5.1-2.6-7.4-6.4-7.4c-2.9,0-4.2,1.7-5,2.8l0,0v-2.3h-5.4C490.7,292.9,490.5,307.9,490.5,307.9L490.5,307.9z"/>
</g>
</svg>
