<?xml version="1.0" encoding="utf-8"?>
<!-- Generator: Adobe Illustrator 18.1.1, SVG Export Plug-In . SVG Version: 6.00 Build 0)  -->
<!DOCTYPE svg PUBLIC "-//W3C//DTD SVG 1.1//EN" "http://www.w3.org/Graphics/SVG/1.1/DTD/svg11.dtd">
<svg version="1.1" id="Layer_1" xmlns="http://www.w3.org/2000/svg" xmlns:xlink="http://www.w3.org/1999/xlink" x="0px" y="0px"
	 viewBox="465 265 59.6 60" enable-background="new 465 265 59.6 60" xml:space="preserve">
<path fill="#6995B0" d="M496.8,292c-0.5,0.3-1.6,1-2.3,1c-0.6,0-1.6-0.6-2.3-1c-0.7-0.4-18.4-12.1-18.4-12.1c0-0.8,0.6-1.4,1.4-1.4
	h38.6c0.8,0,1.4,0.6,1.4,1.4C515.2,279.8,497.7,291.5,496.8,292z"/>
<g>
	<path fill="#6995B0" d="M515.1,281.9"/>
	<path fill="#6995B0" d="M474,281.9"/>
	<path fill="#6995B0" d="M496.8,294c-0.5,0.3-1.6,1-2.3,1c-0.6,0-1.6-0.6-2.3-1c-0.6-0.3-17-11.2-18.3-12.1
		c-0.1,0.2-0.1,0.4-0.1,0.6v25c0,1.1,0.9,2,2,2h37.3c1.1,0,2-0.9,2-2v-25c0-0.2,0-0.4-0.1-0.6C513.8,282.8,497.7,293.5,496.8,294z"
		/>
</g>
</svg>
