<?xml version="1.0" encoding="utf-8"?>
<!-- Generator: Adobe Illustrator 18.1.1, SVG Export Plug-In . SVG Version: 6.00 Build 0)  -->
<!DOCTYPE svg PUBLIC "-//W3C//DTD SVG 1.1//EN" "http://www.w3.org/Graphics/SVG/1.1/DTD/svg11.dtd">
<svg version="1.1" id="Layer_1" xmlns="http://www.w3.org/2000/svg" xmlns:xlink="http://www.w3.org/1999/xlink" x="0px" y="0px"
	 viewBox="0 0 361.5 39.5" enable-background="new 0 0 361.5 39.5" xml:space="preserve">
<g>
	<g>
		<g>
			<defs>
				<filter id="Adobe_OpacityMaskFilter" filterUnits="userSpaceOnUse" x="55.8" y="9.1" width="82.8" height="15">
					<feFlood  style="flood-color:white;flood-opacity:1" result="back"/>
					<feBlend  in="SourceGraphic" in2="back" mode="normal"/>
				</filter>
			</defs>
			<mask maskUnits="userSpaceOnUse" x="55.8" y="9.1" width="82.8" height="15" id="SVGID_1_">
				<g filter="url(#Adobe_OpacityMaskFilter)">
					<image overflow="visible" width="88" height="20" xlink:href="3879FC675CC7DAEC.jpg"  transform="matrix(1 0 0 1 53 6.5)">
					</image>
				</g>
			</mask>
			<g mask="url(#SVGID_1_)">
				<path fill="#6995B0" d="M137.3,9.1c0,0-30.3,1.4-40.5,1.6C87.1,10.9,58,11,58,11s-0.9,0.8-1.3,1.5c-0.7,1-0.8,2.1-0.8,2.1
					l11-0.1l-9.2,6.2c-0.2,0.4,0.1,0.8,1,1.6s1.8,1.9,1.8,1.9s5.3-5,7.7-6.8s8.2-2.9,8.2-2.9s10.2-0.7,20.7-0.7
					c10.8,0,21.9,0.6,22.6,0.8c1.8,0.5,5.6,1.8,7.1,3.3c1.5,1.5,5.9,5.2,5.9,5.2l2.8-2.6L123,12.9l15.6,0.1c0,0,0.2-0.9-0.2-2.2
					C138.2,10.3,137.3,9.1,137.3,9.1z"/>
			</g>
		</g>
		<g>
			<path fill="#6995B0" d="M96.4,8.1c2-0.2,5.1-1,6.2-1.3c1.4-0.4,11.4-4,16.1-4.5s7.1-0.3,10-0.2c4.6,0.2,8.6,1.4,10.4,2
				c2.7,0.9,4.7,1.6,5.2,2.9c0.6,1.6-0.4,4-1.3,5.3c-1.8,2.8-6,9.1-8.9,11.1c-2.9,2-9.7,5.1-17.2,4.7c-7.5-0.3-11.2-4.6-12.7-6.4
				c-1-1.2-3.9-7.6-4.6-8.7s-0.9-1-3-0.9c-2.1,0.1-2,0.3-2.6,1.1s-2.2,6.2-4,9.9c-1.8,3.7-8.2,6.9-15.1,7.6
				c-6.9,0.8-12-2.3-14.1-3.3c-2.4-1.2-6.8-5.7-8.6-8c-1.3-1.6-3.7-6.6-2.8-8c0.6-0.9,1.8-1.6,4.7-2.5c3.9-1.2,10.9-3,16.6-3.5
				c5.1-0.5,8.2-0.6,10.9-0.2c3,0.5,8.5,2,10.4,2.4C94.2,8.1,94.3,8.3,96.4,8.1z M73.1,7.2c-13.6,1.2-18.2,4.7-17.5,10.7
				c0.7,5.4,9.9,11.9,19.3,11.3s16.3-7.5,15.6-13.6C89.7,9.3,83.6,6.3,73.1,7.2z M103.2,15.4c0.3,6.2,8.7,12.5,18.1,11.5
				s17.4-8.9,17.2-14.4c-0.3-6-5.3-9.2-18.9-8.1C109,5.3,102.9,9,103.2,15.4z"/>
			<path fill="#6995B0" d="M58.7,26c0,0-8.7,10.7-9.8,10.8c-0.5,0.1-1.3-0.3-1.6-0.6c-1-0.9-2.6-4-2-5.6s9.9-7.8,9.9-7.8L58.7,26z"
				/>
			<path fill="#6995B0" d="M134.2,23.5c0,0,10.3,12,10.5,12.1c0.8,0.8,1.6,0.5,2.1,0.1c1.3-1.1,2.8-5.2,1.9-6.8
				c-0.9-1.6-11.5-8.2-11.5-8.2L134.2,23.5z"/>
		</g>
	</g>
	<g>
		<circle fill="#FFFFFF" cx="51.2" cy="12.8" r="0.4"/>
		<circle fill="#FFFFFF" cx="52.9" cy="12.1" r="0.4"/>
		<circle fill="#FFFFFF" cx="52.6" cy="14.2" r="0.4"/>
	</g>
	<g>
		<circle fill="#FFFFFF" cx="143.1" cy="8.3" r="0.4"/>
		<circle fill="#FFFFFF" cx="141.9" cy="9.7" r="0.4"/>
		<circle fill="#FFFFFF" cx="141.2" cy="7.8" r="0.4"/>
	</g>
</g>
<g>
	<g>
		<path fill="#354B58" d="M164.9,25.3h-2.7V7.4h-5.4l0.2-2.2h13.2L170,7.4h-5.1V25.3z"/>
		<path fill="#354B58" d="M179.2,25.7c-0.5-0.4-1.1-1.3-1.3-1.9l-0.1,0c-1.3,1.1-3.2,2-4.8,2c-1.9,0-3-1.4-3-3.3
			c0-4.3,3.9-5.5,7.8-5.5c0-2.3-0.2-4-2.3-4c-1.6,0-2.9,0.6-3.9,1.3l-0.8-1.6c1.4-0.9,3.5-1.8,5.9-1.8c3.3,0,3.5,2.5,3.5,5.5v5.1
			c0,1.6,0.5,2.5,1.1,3L179.2,25.7z M177.9,18.8c-0.4,0-0.9-0.1-1.6-0.1c-1.9,0-3.8,0.9-3.8,3c0,1.2,0.8,2,2,2
			c1.1,0,2.3-0.5,3.5-1.6V18.8z"/>
		<path fill="#354B58" d="M187.9,12.6L187.9,12.6c1.5-1.1,3.2-1.9,5.2-1.9c1.6,0,2.4,0.9,2.8,1.9l0.1,0.1c1.4-1.2,3.3-2,5.3-2
			c2.9,0,3.5,2.2,3.5,4.8v9.8h-2.5V16c0-2-0.6-3.1-2.5-3.1c-1.5,0-2.7,0.7-3.6,1.4c0.1,0.6,0.1,1.3,0.1,2v8.9h-2.5V16
			c0-1.8-0.4-3.1-2.4-3.1c-1.3,0-2.6,0.7-3.5,1.6v10.8h-2.5V15.2c0-1.7-0.3-2.4-0.8-3.2l2.3-1.2C187.3,11.1,187.7,12,187.9,12.6z"/>
		<path fill="#354B58" d="M217.8,25.7c-0.5-0.4-1.1-1.3-1.3-1.9l-0.1,0c-1.3,1.1-3.2,2-4.8,2c-1.9,0-3-1.4-3-3.3
			c0-4.3,3.9-5.5,7.8-5.5c0-2.3-0.2-4-2.3-4c-1.6,0-2.9,0.6-3.9,1.3l-0.8-1.6c1.4-0.9,3.5-1.8,5.9-1.8c3.3,0,3.5,2.5,3.5,5.5v5.1
			c0,1.6,0.5,2.5,1.1,3L217.8,25.7z M216.4,18.8c-0.4,0-0.9-0.1-1.6-0.1c-1.9,0-3.8,0.9-3.8,3c0,1.2,0.8,2,2,2
			c1.1,0,2.3-0.5,3.5-1.6V18.8z"/>
		<path fill="#354B58" d="M226.4,13L226.4,13c1.1-1.3,2.5-2.2,4.8-2.2l0.3,2.8l-0.2,0.2c-0.3-0.1-1-0.3-1.8-0.3
			c-1.5,0-2.4,0.5-3.1,1.5v10.4H224V15.2c0-1.7-0.3-2.4-0.9-3.2l2.3-1.2C225.9,11.1,226.3,12.1,226.4,13z"/>
		<path fill="#354B58" d="M242.3,25.7c-0.5-0.4-1.1-1.3-1.3-1.9l-0.1,0c-1.3,1.1-3.2,2-4.8,2c-1.9,0-3-1.4-3-3.3
			c0-4.3,3.9-5.5,7.8-5.5c0-2.3-0.2-4-2.3-4c-1.6,0-2.9,0.6-3.9,1.3l-0.8-1.6c1.4-0.9,3.5-1.8,5.9-1.8c3.3,0,3.5,2.5,3.5,5.5v5.1
			c0,1.6,0.5,2.5,1.1,3L242.3,25.7z M240.9,18.8c-0.4,0-0.9-0.1-1.6-0.1c-1.9,0-3.8,0.9-3.8,3c0,1.2,0.8,2,2,2
			c1.1,0,2.3-0.5,3.5-1.6V18.8z"/>
		<path fill="#354B58" d="M271.9,5.5l2.2-0.6l3.7,20.3l-2.9,0.2l-1.3-8.3c-0.3-2.1-0.8-5.2-0.9-6.8h-0.2l-5.9,14.2l-1.1,0.1
			l-3.3-8.5c-0.6-1.7-1.6-4.2-2.1-5.9h-0.2l-2.5,15.1l-2.6-0.2l3.9-19.7l2.1-0.6l3,7.9c0.9,2.3,1.8,5,2.4,7h0.2L271.9,5.5z"/>
		<path fill="#354B58" d="M290.6,13.4c-0.5-0.2-1.3-0.5-2.5-0.5c-2.2,0-4.5,1.4-4.5,5.1c0,3.5,1.5,5.6,4.4,5.6c0.9,0,2.1-0.2,3-0.7
			l0.6,2.1c-1,0.5-2.5,0.8-4,0.8c-4.2,0-6.7-2.4-6.7-7.2c0-4.5,3-7.8,7.1-7.8c1.5,0,2.4,0.3,3,0.5L290.6,13.4z"/>
		<path fill="#354B58" d="M298.2,13.9h7l-0.2,2.2h-6.8v6.9h7.9l-0.5,2.2h-10.1V5.2h10l-0.2,2.2h-7.1V13.9z"/>
		<path fill="#354B58" d="M313.1,25.3h-2.5V3.4l2.5-0.8V25.3z"/>
		<path fill="#354B58" d="M321,13L321,13c1.1-1.3,2.5-2.2,4.8-2.2l0.3,2.8l-0.2,0.2c-0.3-0.1-1-0.3-1.8-0.3c-1.5,0-2.4,0.5-3.1,1.5
			v10.4h-2.5V15.2c0-1.7-0.3-2.4-0.9-3.2l2.3-1.2C320.4,11.1,320.9,12.1,321,13z"/>
		<path fill="#354B58" d="M333.9,25.7c-4.1,0-6.4-3.1-6.4-7.6c0-4.5,2.7-7.4,6.9-7.4c3.4,0,6.1,2.8,6.1,7.3
			C340.4,23,337.9,25.7,333.9,25.7z M333.8,12.8c-2.3,0-3.8,2.1-3.8,4.7c0,3.8,1.8,6.2,4.2,6.2c2.3,0,3.8-1.6,3.8-4.8
			C337.9,15.2,336.4,12.8,333.8,12.8z"/>
		<path fill="#354B58" d="M353.4,10.7l2.5,0.6l-8,20.4l-2.5-0.7l2.9-5.7H347l-4.6-13.8l2.5-0.8l4,12.7h0.1L353.4,10.7z"/>
	</g>
</g>
</svg>
