<?xml version="1.0" encoding="utf-8"?>
<!-- Generator: Adobe Illustrator 18.1.1, SVG Export Plug-In . SVG Version: 6.00 Build 0)  -->
<!DOCTYPE svg PUBLIC "-//W3C//DTD SVG 1.1//EN" "http://www.w3.org/Graphics/SVG/1.1/DTD/svg11.dtd">
<svg version="1.1" id="Layer_1" xmlns="http://www.w3.org/2000/svg" xmlns:xlink="http://www.w3.org/1999/xlink" x="0px" y="0px"
	 viewBox="483 269 61 61" enable-background="new 483 269 61 61" xml:space="preserve">
<g>
	<path fill="#6995B0" d="M513,279.5c-11,0-20,9-20,20s9,20,20,20s20-9,20-20C533.2,288.5,524.2,279.5,513,279.5L513,279.5z"/>
	<path fill="#FFFFFF" d="M522,295c0,0.2,0,0.5,0,0.6c0,6-4.7,13.2-13.2,13.2c-2.6,0-5-0.8-7.1-2c0.3,0,0.8,0,1.1,0
		c2.2,0,4.2-0.8,5.7-2c-2,0-3.7-1.4-4.3-3.3c0.3,0,0.6,0.2,0.9,0.2c0.5,0,0.8,0,1.2-0.2c-2-0.5-3.6-2.3-3.6-4.7l0,0
		c0.6,0.3,1.4,0.6,2,0.6c-1.2-0.9-2-2.3-2-3.9c0-0.8,0.2-1.7,0.6-2.3c2.3,2.8,5.7,4.7,9.5,4.8c-0.2-0.3-0.2-0.6-0.2-1.1
		c0-2.5,2-4.7,4.7-4.7c1.4,0,2.5,0.6,3.4,1.4c1.1-0.2,2-0.6,2.9-1.1c-0.3,1.1-1.1,2-2,2.5c0.9-0.2,1.9-0.3,2.6-0.8
		C523.7,293.4,522.9,294.4,522,295L522,295z"/>
</g>
</svg>
