<?xml version="1.0" encoding="utf-8"?>
<!-- Generator: Adobe Illustrator 18.1.1, SVG Export Plug-In . SVG Version: 6.00 Build 0)  -->
<!DOCTYPE svg PUBLIC "-//W3C//DTD SVG 1.1//EN" "http://www.w3.org/Graphics/SVG/1.1/DTD/svg11.dtd">
<svg version="1.1" id="Layer_1" xmlns="http://www.w3.org/2000/svg" xmlns:xlink="http://www.w3.org/1999/xlink" x="0px" y="0px"
	 viewBox="0 0 34.8 40" enable-background="new 0 0 34.8 40" xml:space="preserve">
<g>
	<path fill="#6995B0" d="M17.6,7C10.5,7,4.7,12.8,4.7,19.9c0,7.1,5.8,12.9,12.9,12.9c7.1,0,12.9-5.8,12.9-12.9
		C30.6,12.8,24.8,7,17.6,7L17.6,7z M23.4,17c0,0.1,0,0.3,0,0.4c0,3.9-3,8.5-8.5,8.5c-1.7,0-3.2-0.5-4.6-1.3c0.2,0,0.5,0,0.7,0
		c1.4,0,2.7-0.5,3.7-1.3c-1.3,0-2.4-0.9-2.8-2.1c0.2,0,0.4,0.1,0.6,0.1c0.3,0,0.5,0,0.8-0.1C12,20.9,11,19.7,11,18.2c0,0,0,0,0,0
		c0.4,0.2,0.9,0.4,1.3,0.4C11.5,18,11,17.1,11,16.1c0-0.5,0.1-1.1,0.4-1.5c1.5,1.8,3.7,3,6.1,3.1c-0.1-0.2-0.1-0.4-0.1-0.7
		c0-1.6,1.3-3,3-3c0.9,0,1.6,0.4,2.2,0.9c0.7-0.1,1.3-0.4,1.9-0.7c-0.2,0.7-0.7,1.3-1.3,1.6c0.6-0.1,1.2-0.2,1.7-0.5
		C24.5,16,24,16.6,23.4,17L23.4,17z M23.4,17"/>
</g>
</svg>
