<?xml version="1.0" encoding="utf-8"?>
<!-- Generator: Adobe Illustrator 18.1.1, SVG Export Plug-In . SVG Version: 6.00 Build 0)  -->
<!DOCTYPE svg PUBLIC "-//W3C//DTD SVG 1.1//EN" "http://www.w3.org/Graphics/SVG/1.1/DTD/svg11.dtd">
<svg version="1.1" xmlns="http://www.w3.org/2000/svg" xmlns:xlink="http://www.w3.org/1999/xlink" x="0px" y="0px"
	 viewBox="0 0 300 300" enable-background="new 0 0 300 300" xml:space="preserve">
<g id="Layer_1">
</g>
<g id="Layer_2">
	<g>
		<g>
			<defs>
				<rect id="SVGID_1_" x="0" y="2" width="300" height="300"/>
			</defs>
			<clipPath id="SVGID_2_">
				<use xlink:href="#SVGID_1_"  overflow="visible"/>
			</clipPath>
			<g clip-path="url(#SVGID_2_)">
				<rect x="249.4" y="-0.5" fill="none" width="100" height="100"/>
				<rect x="249.4" y="-0.5" fill="#CBEBFD" width="100" height="100"/>
				<path fill="#EEEFDA" d="M299.4,6.8c23.6,0,42.7,19.1,42.7,42.7S323,92.2,299.4,92.2c-23.6,0-42.7-19.1-42.7-42.7
					S275.8,6.8,299.4,6.8 M299.4,4.2c-25,0-45.3,20.3-45.3,45.3s20.3,45.3,45.3,45.3s45.3-20.3,45.3-45.3S324.3,4.2,299.4,4.2
					L299.4,4.2z"/>
				<circle fill="none" stroke="#EEEFDA" stroke-width="0.3708" stroke-miterlimit="10" cx="299.4" cy="49.5" r="41.1"/>
				<circle fill="none" stroke="#EEEFDA" stroke-width="0.3708" stroke-miterlimit="10" cx="299.4" cy="49.5" r="41.1"/>
				<circle fill="none" stroke="#EEEFDA" stroke-width="0.3708" stroke-miterlimit="10" cx="299.4" cy="49.5" r="41.1"/>
				<circle fill="none" stroke="#EEEFDA" stroke-width="0.3708" stroke-miterlimit="10" cx="299.4" cy="49.5" r="41.1"/>
				<circle fill="none" stroke="#EEEFDA" stroke-width="0.3708" stroke-miterlimit="10" cx="299.4" cy="49.5" r="41.1"/>
				<circle fill="none" stroke="#EEEFDA" stroke-width="0.3708" stroke-miterlimit="10" cx="299.4" cy="49.5" r="41.1"/>
				<circle fill="none" stroke="#EEEFDA" stroke-width="0.3708" stroke-miterlimit="10" cx="299.4" cy="49.5" r="41.1"/>
				<circle fill="none" stroke="#EEEFDA" stroke-width="0.3708" stroke-miterlimit="10" cx="299.4" cy="49.5" r="41.1"/>
				<circle fill="none" stroke="#EEEFDA" stroke-width="0.3708" stroke-miterlimit="10" cx="299.4" cy="49.5" r="41.1"/>
				<circle fill="#EEEFDA" cx="299.2" cy="49.5" r="4.3"/>
				<line fill="none" stroke="#EEEFDA" stroke-width="0.3708" stroke-miterlimit="10" x1="285.3" y1="11" x2="313.4" y2="88"/>
				<line fill="none" stroke="#EEEFDA" stroke-width="0.3708" stroke-miterlimit="10" x1="299.4" y1="8.5" x2="299.3" y2="90.5"/>
				<line fill="none" stroke="#EEEFDA" stroke-width="0.3708" stroke-miterlimit="10" x1="273" y1="18.1" x2="325.7" y2="80.9"/>
				<line fill="none" stroke="#EEEFDA" stroke-width="0.3708" stroke-miterlimit="10" x1="263.9" y1="29" x2="334.9" y2="70"/>
				<line fill="none" stroke="#EEEFDA" stroke-width="0.3708" stroke-miterlimit="10" x1="259" y1="42.4" x2="339.7" y2="56.6"/>
				<line fill="none" stroke="#EEEFDA" stroke-width="0.3708" stroke-miterlimit="10" x1="259" y1="56.6" x2="339.7" y2="42.4"/>
				<line fill="none" stroke="#EEEFDA" stroke-width="0.3708" stroke-miterlimit="10" x1="263.9" y1="70" x2="334.9" y2="29"/>
				<line fill="none" stroke="#EEEFDA" stroke-width="0.3705" stroke-miterlimit="10" x1="273.1" y1="80.9" x2="325.7" y2="18.1"/>
				<line fill="none" stroke="#EEEFDA" stroke-width="0.3708" stroke-miterlimit="10" x1="285.4" y1="88" x2="313.4" y2="11"/>
				<circle fill="#CBEBFD" cx="299.4" cy="49.5" r="2.3"/>
			</g>
			<g clip-path="url(#SVGID_2_)">
				<rect x="249.4" y="99.5" fill="none" width="100" height="100"/>
				<rect x="249.4" y="99.5" fill="#CBEBFD" width="100" height="100"/>
				<path fill="#EEEFDA" d="M299.4,106.8c23.6,0,42.7,19.1,42.7,42.7s-19.1,42.7-42.7,42.7c-23.6,0-42.7-19.1-42.7-42.7
					S275.8,106.8,299.4,106.8 M299.4,104.2c-25,0-45.3,20.3-45.3,45.3s20.3,45.3,45.3,45.3s45.3-20.3,45.3-45.3
					S324.3,104.2,299.4,104.2L299.4,104.2z"/>
				<circle fill="none" stroke="#EEEFDA" stroke-width="0.3708" stroke-miterlimit="10" cx="299.4" cy="149.5" r="41.1"/>
				<circle fill="none" stroke="#EEEFDA" stroke-width="0.3708" stroke-miterlimit="10" cx="299.4" cy="149.5" r="41.1"/>
				<circle fill="none" stroke="#EEEFDA" stroke-width="0.3708" stroke-miterlimit="10" cx="299.4" cy="149.5" r="41.1"/>
				<circle fill="none" stroke="#EEEFDA" stroke-width="0.3708" stroke-miterlimit="10" cx="299.4" cy="149.5" r="41.1"/>
				<circle fill="none" stroke="#EEEFDA" stroke-width="0.3708" stroke-miterlimit="10" cx="299.4" cy="149.5" r="41.1"/>
				<circle fill="none" stroke="#EEEFDA" stroke-width="0.3708" stroke-miterlimit="10" cx="299.4" cy="149.5" r="41.1"/>
				<circle fill="none" stroke="#EEEFDA" stroke-width="0.3708" stroke-miterlimit="10" cx="299.4" cy="149.5" r="41.1"/>
				<circle fill="none" stroke="#EEEFDA" stroke-width="0.3708" stroke-miterlimit="10" cx="299.4" cy="149.5" r="41.1"/>
				<circle fill="none" stroke="#EEEFDA" stroke-width="0.3708" stroke-miterlimit="10" cx="299.4" cy="149.5" r="41.1"/>
				<circle fill="#EEEFDA" cx="299.2" cy="149.5" r="4.3"/>
				<line fill="none" stroke="#EEEFDA" stroke-width="0.3708" stroke-miterlimit="10" x1="285.3" y1="111" x2="313.4" y2="188"/>
				
					<line fill="none" stroke="#EEEFDA" stroke-width="0.3708" stroke-miterlimit="10" x1="299.4" y1="108.5" x2="299.3" y2="190.5"/>
				<line fill="none" stroke="#EEEFDA" stroke-width="0.3708" stroke-miterlimit="10" x1="273" y1="118.1" x2="325.7" y2="180.9"/>
				<line fill="none" stroke="#EEEFDA" stroke-width="0.3708" stroke-miterlimit="10" x1="263.9" y1="129" x2="334.9" y2="170"/>
				<line fill="none" stroke="#EEEFDA" stroke-width="0.3708" stroke-miterlimit="10" x1="259" y1="142.4" x2="339.7" y2="156.6"/>
				<line fill="none" stroke="#EEEFDA" stroke-width="0.3708" stroke-miterlimit="10" x1="259" y1="156.6" x2="339.7" y2="142.4"/>
				<line fill="none" stroke="#EEEFDA" stroke-width="0.3708" stroke-miterlimit="10" x1="263.9" y1="170" x2="334.9" y2="129"/>
				
					<line fill="none" stroke="#EEEFDA" stroke-width="0.3705" stroke-miterlimit="10" x1="273.1" y1="180.9" x2="325.7" y2="118.1"/>
				<line fill="none" stroke="#EEEFDA" stroke-width="0.3708" stroke-miterlimit="10" x1="285.4" y1="188" x2="313.4" y2="111"/>
				<circle fill="#CBEBFD" cx="299.4" cy="149.5" r="2.3"/>
			</g>
			<g clip-path="url(#SVGID_2_)">
				<rect x="249.4" y="199.5" fill="none" width="100" height="100"/>
				<rect x="249.4" y="199.5" fill="#CBEBFD" width="100" height="100"/>
				<path fill="#EEEFDA" d="M299.4,206.8c23.6,0,42.7,19.1,42.7,42.7s-19.1,42.7-42.7,42.7c-23.6,0-42.7-19.1-42.7-42.7
					S275.8,206.8,299.4,206.8 M299.4,204.2c-25,0-45.3,20.3-45.3,45.3s20.3,45.3,45.3,45.3s45.3-20.3,45.3-45.3
					S324.3,204.2,299.4,204.2L299.4,204.2z"/>
				<circle fill="none" stroke="#EEEFDA" stroke-width="0.3708" stroke-miterlimit="10" cx="299.4" cy="249.5" r="41.1"/>
				<circle fill="none" stroke="#EEEFDA" stroke-width="0.3708" stroke-miterlimit="10" cx="299.4" cy="249.5" r="41.1"/>
				<circle fill="none" stroke="#EEEFDA" stroke-width="0.3708" stroke-miterlimit="10" cx="299.4" cy="249.5" r="41.1"/>
				<circle fill="none" stroke="#EEEFDA" stroke-width="0.3708" stroke-miterlimit="10" cx="299.4" cy="249.5" r="41.1"/>
				<circle fill="none" stroke="#EEEFDA" stroke-width="0.3708" stroke-miterlimit="10" cx="299.4" cy="249.5" r="41.1"/>
				<circle fill="none" stroke="#EEEFDA" stroke-width="0.3708" stroke-miterlimit="10" cx="299.4" cy="249.5" r="41.1"/>
				<circle fill="none" stroke="#EEEFDA" stroke-width="0.3708" stroke-miterlimit="10" cx="299.4" cy="249.5" r="41.1"/>
				<circle fill="none" stroke="#EEEFDA" stroke-width="0.3708" stroke-miterlimit="10" cx="299.4" cy="249.5" r="41.1"/>
				<circle fill="none" stroke="#EEEFDA" stroke-width="0.3708" stroke-miterlimit="10" cx="299.4" cy="249.5" r="41.1"/>
				<circle fill="#EEEFDA" cx="299.2" cy="249.5" r="4.3"/>
				<line fill="none" stroke="#EEEFDA" stroke-width="0.3708" stroke-miterlimit="10" x1="285.3" y1="211" x2="313.4" y2="288"/>
				
					<line fill="none" stroke="#EEEFDA" stroke-width="0.3708" stroke-miterlimit="10" x1="299.4" y1="208.5" x2="299.3" y2="290.5"/>
				<line fill="none" stroke="#EEEFDA" stroke-width="0.3708" stroke-miterlimit="10" x1="273" y1="218.1" x2="325.7" y2="280.9"/>
				<line fill="none" stroke="#EEEFDA" stroke-width="0.3708" stroke-miterlimit="10" x1="263.9" y1="229" x2="334.9" y2="270"/>
				<line fill="none" stroke="#EEEFDA" stroke-width="0.3708" stroke-miterlimit="10" x1="259" y1="242.4" x2="339.7" y2="256.6"/>
				<line fill="none" stroke="#EEEFDA" stroke-width="0.3708" stroke-miterlimit="10" x1="259" y1="256.6" x2="339.7" y2="242.4"/>
				<line fill="none" stroke="#EEEFDA" stroke-width="0.3708" stroke-miterlimit="10" x1="263.9" y1="270" x2="334.9" y2="229"/>
				
					<line fill="none" stroke="#EEEFDA" stroke-width="0.3705" stroke-miterlimit="10" x1="273.1" y1="280.9" x2="325.7" y2="218.1"/>
				<line fill="none" stroke="#EEEFDA" stroke-width="0.3708" stroke-miterlimit="10" x1="285.4" y1="288" x2="313.4" y2="211"/>
				<circle fill="#CBEBFD" cx="299.4" cy="249.5" r="2.3"/>
			</g>
			<g clip-path="url(#SVGID_2_)">
				<rect x="249.4" y="299.5" fill="none" width="100" height="100"/>
				<rect x="249.4" y="299.5" fill="#CBEBFD" width="100" height="100"/>
				<path fill="#EEEFDA" d="M299.4,306.8c23.6,0,42.7,19.1,42.7,42.7s-19.1,42.7-42.7,42.7c-23.6,0-42.7-19.1-42.7-42.7
					S275.8,306.8,299.4,306.8 M299.4,304.2c-25,0-45.3,20.3-45.3,45.3c0,25,20.3,45.3,45.3,45.3s45.3-20.3,45.3-45.3
					C344.7,324.5,324.3,304.2,299.4,304.2L299.4,304.2z"/>
				<circle fill="none" stroke="#EEEFDA" stroke-width="0.3708" stroke-miterlimit="10" cx="299.4" cy="349.5" r="41.1"/>
				<circle fill="none" stroke="#EEEFDA" stroke-width="0.3708" stroke-miterlimit="10" cx="299.4" cy="349.5" r="41.1"/>
				<circle fill="none" stroke="#EEEFDA" stroke-width="0.3708" stroke-miterlimit="10" cx="299.4" cy="349.5" r="41.1"/>
				<circle fill="none" stroke="#EEEFDA" stroke-width="0.3708" stroke-miterlimit="10" cx="299.4" cy="349.5" r="41.1"/>
				<circle fill="none" stroke="#EEEFDA" stroke-width="0.3708" stroke-miterlimit="10" cx="299.4" cy="349.5" r="41.1"/>
				<circle fill="none" stroke="#EEEFDA" stroke-width="0.3708" stroke-miterlimit="10" cx="299.4" cy="349.5" r="41.1"/>
				<circle fill="none" stroke="#EEEFDA" stroke-width="0.3708" stroke-miterlimit="10" cx="299.4" cy="349.5" r="41.1"/>
				<circle fill="none" stroke="#EEEFDA" stroke-width="0.3708" stroke-miterlimit="10" cx="299.4" cy="349.5" r="41.1"/>
				<circle fill="none" stroke="#EEEFDA" stroke-width="0.3708" stroke-miterlimit="10" cx="299.4" cy="349.5" r="41.1"/>
				<circle fill="#EEEFDA" cx="299.2" cy="349.5" r="4.3"/>
				<line fill="none" stroke="#EEEFDA" stroke-width="0.3708" stroke-miterlimit="10" x1="285.3" y1="311" x2="313.4" y2="388"/>
				
					<line fill="none" stroke="#EEEFDA" stroke-width="0.3708" stroke-miterlimit="10" x1="299.4" y1="308.5" x2="299.3" y2="390.5"/>
				<line fill="none" stroke="#EEEFDA" stroke-width="0.3708" stroke-miterlimit="10" x1="273" y1="318.1" x2="325.7" y2="380.9"/>
				<line fill="none" stroke="#EEEFDA" stroke-width="0.3708" stroke-miterlimit="10" x1="263.9" y1="329" x2="334.9" y2="370"/>
				<line fill="none" stroke="#EEEFDA" stroke-width="0.3708" stroke-miterlimit="10" x1="259" y1="342.4" x2="339.7" y2="356.6"/>
				<line fill="none" stroke="#EEEFDA" stroke-width="0.3708" stroke-miterlimit="10" x1="259" y1="356.6" x2="339.7" y2="342.4"/>
				<line fill="none" stroke="#EEEFDA" stroke-width="0.3708" stroke-miterlimit="10" x1="263.9" y1="370" x2="334.9" y2="329"/>
				
					<line fill="none" stroke="#EEEFDA" stroke-width="0.3705" stroke-miterlimit="10" x1="273.1" y1="380.9" x2="325.7" y2="318.1"/>
				<line fill="none" stroke="#EEEFDA" stroke-width="0.3708" stroke-miterlimit="10" x1="285.4" y1="388" x2="313.4" y2="311"/>
				<circle fill="#CBEBFD" cx="299.4" cy="349.5" r="2.3"/>
			</g>
			<g clip-path="url(#SVGID_2_)">
				<rect x="149.4" y="-0.5" fill="none" width="100" height="100"/>
				<rect x="149.4" y="-0.5" fill="#CBEBFD" width="100" height="100"/>
				<path fill="#EEEFDA" d="M199.4,6.8c23.6,0,42.7,19.1,42.7,42.7S223,92.2,199.4,92.2c-23.6,0-42.7-19.1-42.7-42.7
					S175.8,6.8,199.4,6.8 M199.4,4.2c-25,0-45.3,20.3-45.3,45.3s20.3,45.3,45.3,45.3s45.3-20.3,45.3-45.3S224.3,4.2,199.4,4.2
					L199.4,4.2z"/>
				<circle fill="none" stroke="#EEEFDA" stroke-width="0.3708" stroke-miterlimit="10" cx="199.4" cy="49.5" r="41.1"/>
				<circle fill="none" stroke="#EEEFDA" stroke-width="0.3708" stroke-miterlimit="10" cx="199.4" cy="49.5" r="41.1"/>
				<circle fill="none" stroke="#EEEFDA" stroke-width="0.3708" stroke-miterlimit="10" cx="199.4" cy="49.5" r="41.1"/>
				<circle fill="none" stroke="#EEEFDA" stroke-width="0.3708" stroke-miterlimit="10" cx="199.4" cy="49.5" r="41.1"/>
				<circle fill="none" stroke="#EEEFDA" stroke-width="0.3708" stroke-miterlimit="10" cx="199.4" cy="49.5" r="41.1"/>
				<circle fill="none" stroke="#EEEFDA" stroke-width="0.3708" stroke-miterlimit="10" cx="199.4" cy="49.5" r="41.1"/>
				<circle fill="none" stroke="#EEEFDA" stroke-width="0.3708" stroke-miterlimit="10" cx="199.4" cy="49.5" r="41.1"/>
				<circle fill="none" stroke="#EEEFDA" stroke-width="0.3708" stroke-miterlimit="10" cx="199.4" cy="49.5" r="41.1"/>
				<circle fill="none" stroke="#EEEFDA" stroke-width="0.3708" stroke-miterlimit="10" cx="199.4" cy="49.5" r="41.1"/>
				<circle fill="#EEEFDA" cx="199.2" cy="49.5" r="4.3"/>
				<line fill="none" stroke="#EEEFDA" stroke-width="0.3708" stroke-miterlimit="10" x1="185.3" y1="11" x2="213.4" y2="88"/>
				<line fill="none" stroke="#EEEFDA" stroke-width="0.3708" stroke-miterlimit="10" x1="199.4" y1="8.5" x2="199.3" y2="90.5"/>
				<line fill="none" stroke="#EEEFDA" stroke-width="0.3708" stroke-miterlimit="10" x1="173" y1="18.1" x2="225.7" y2="80.9"/>
				<line fill="none" stroke="#EEEFDA" stroke-width="0.3708" stroke-miterlimit="10" x1="163.9" y1="29" x2="234.9" y2="70"/>
				<line fill="none" stroke="#EEEFDA" stroke-width="0.3708" stroke-miterlimit="10" x1="159" y1="42.4" x2="239.7" y2="56.6"/>
				<line fill="none" stroke="#EEEFDA" stroke-width="0.3708" stroke-miterlimit="10" x1="159" y1="56.6" x2="239.7" y2="42.4"/>
				<line fill="none" stroke="#EEEFDA" stroke-width="0.3708" stroke-miterlimit="10" x1="163.9" y1="70" x2="234.9" y2="29"/>
				<line fill="none" stroke="#EEEFDA" stroke-width="0.3705" stroke-miterlimit="10" x1="173.1" y1="80.9" x2="225.7" y2="18.1"/>
				<line fill="none" stroke="#EEEFDA" stroke-width="0.3708" stroke-miterlimit="10" x1="185.4" y1="88" x2="213.4" y2="11"/>
				<circle fill="#CBEBFD" cx="199.4" cy="49.5" r="2.3"/>
			</g>
			<g clip-path="url(#SVGID_2_)">
				<rect x="149.4" y="99.5" fill="none" width="100" height="100"/>
				<rect x="149.4" y="99.5" fill="#CBEBFD" width="100" height="100"/>
				<path fill="#EEEFDA" d="M199.4,106.8c23.6,0,42.7,19.1,42.7,42.7s-19.1,42.7-42.7,42.7c-23.6,0-42.7-19.1-42.7-42.7
					S175.8,106.8,199.4,106.8 M199.4,104.2c-25,0-45.3,20.3-45.3,45.3s20.3,45.3,45.3,45.3s45.3-20.3,45.3-45.3
					S224.3,104.2,199.4,104.2L199.4,104.2z"/>
				<circle fill="none" stroke="#EEEFDA" stroke-width="0.3708" stroke-miterlimit="10" cx="199.4" cy="149.5" r="41.1"/>
				<circle fill="none" stroke="#EEEFDA" stroke-width="0.3708" stroke-miterlimit="10" cx="199.4" cy="149.5" r="41.1"/>
				<circle fill="none" stroke="#EEEFDA" stroke-width="0.3708" stroke-miterlimit="10" cx="199.4" cy="149.5" r="41.1"/>
				<circle fill="none" stroke="#EEEFDA" stroke-width="0.3708" stroke-miterlimit="10" cx="199.4" cy="149.5" r="41.1"/>
				<circle fill="none" stroke="#EEEFDA" stroke-width="0.3708" stroke-miterlimit="10" cx="199.4" cy="149.5" r="41.1"/>
				<circle fill="none" stroke="#EEEFDA" stroke-width="0.3708" stroke-miterlimit="10" cx="199.4" cy="149.5" r="41.1"/>
				<circle fill="none" stroke="#EEEFDA" stroke-width="0.3708" stroke-miterlimit="10" cx="199.4" cy="149.5" r="41.1"/>
				<circle fill="none" stroke="#EEEFDA" stroke-width="0.3708" stroke-miterlimit="10" cx="199.4" cy="149.5" r="41.1"/>
				<circle fill="none" stroke="#EEEFDA" stroke-width="0.3708" stroke-miterlimit="10" cx="199.4" cy="149.5" r="41.1"/>
				<circle fill="#EEEFDA" cx="199.2" cy="149.5" r="4.3"/>
				<line fill="none" stroke="#EEEFDA" stroke-width="0.3708" stroke-miterlimit="10" x1="185.3" y1="111" x2="213.4" y2="188"/>
				
					<line fill="none" stroke="#EEEFDA" stroke-width="0.3708" stroke-miterlimit="10" x1="199.4" y1="108.5" x2="199.3" y2="190.5"/>
				<line fill="none" stroke="#EEEFDA" stroke-width="0.3708" stroke-miterlimit="10" x1="173" y1="118.1" x2="225.7" y2="180.9"/>
				<line fill="none" stroke="#EEEFDA" stroke-width="0.3708" stroke-miterlimit="10" x1="163.9" y1="129" x2="234.9" y2="170"/>
				<line fill="none" stroke="#EEEFDA" stroke-width="0.3708" stroke-miterlimit="10" x1="159" y1="142.4" x2="239.7" y2="156.6"/>
				<line fill="none" stroke="#EEEFDA" stroke-width="0.3708" stroke-miterlimit="10" x1="159" y1="156.6" x2="239.7" y2="142.4"/>
				<line fill="none" stroke="#EEEFDA" stroke-width="0.3708" stroke-miterlimit="10" x1="163.9" y1="170" x2="234.9" y2="129"/>
				
					<line fill="none" stroke="#EEEFDA" stroke-width="0.3705" stroke-miterlimit="10" x1="173.1" y1="180.9" x2="225.7" y2="118.1"/>
				<line fill="none" stroke="#EEEFDA" stroke-width="0.3708" stroke-miterlimit="10" x1="185.4" y1="188" x2="213.4" y2="111"/>
				<circle fill="#CBEBFD" cx="199.4" cy="149.5" r="2.3"/>
			</g>
			<g clip-path="url(#SVGID_2_)">
				<rect x="149.4" y="199.5" fill="none" width="100" height="100"/>
				<rect x="149.4" y="199.5" fill="#CBEBFD" width="100" height="100"/>
				<path fill="#EEEFDA" d="M199.4,206.8c23.6,0,42.7,19.1,42.7,42.7s-19.1,42.7-42.7,42.7c-23.6,0-42.7-19.1-42.7-42.7
					S175.8,206.8,199.4,206.8 M199.4,204.2c-25,0-45.3,20.3-45.3,45.3s20.3,45.3,45.3,45.3s45.3-20.3,45.3-45.3
					S224.3,204.2,199.4,204.2L199.4,204.2z"/>
				<circle fill="none" stroke="#EEEFDA" stroke-width="0.3708" stroke-miterlimit="10" cx="199.4" cy="249.5" r="41.1"/>
				<circle fill="none" stroke="#EEEFDA" stroke-width="0.3708" stroke-miterlimit="10" cx="199.4" cy="249.5" r="41.1"/>
				<circle fill="none" stroke="#EEEFDA" stroke-width="0.3708" stroke-miterlimit="10" cx="199.4" cy="249.5" r="41.1"/>
				<circle fill="none" stroke="#EEEFDA" stroke-width="0.3708" stroke-miterlimit="10" cx="199.4" cy="249.5" r="41.1"/>
				<circle fill="none" stroke="#EEEFDA" stroke-width="0.3708" stroke-miterlimit="10" cx="199.4" cy="249.5" r="41.1"/>
				<circle fill="none" stroke="#EEEFDA" stroke-width="0.3708" stroke-miterlimit="10" cx="199.4" cy="249.5" r="41.1"/>
				<circle fill="none" stroke="#EEEFDA" stroke-width="0.3708" stroke-miterlimit="10" cx="199.4" cy="249.5" r="41.1"/>
				<circle fill="none" stroke="#EEEFDA" stroke-width="0.3708" stroke-miterlimit="10" cx="199.4" cy="249.5" r="41.1"/>
				<circle fill="none" stroke="#EEEFDA" stroke-width="0.3708" stroke-miterlimit="10" cx="199.4" cy="249.5" r="41.1"/>
				<circle fill="#EEEFDA" cx="199.2" cy="249.5" r="4.3"/>
				<line fill="none" stroke="#EEEFDA" stroke-width="0.3708" stroke-miterlimit="10" x1="185.3" y1="211" x2="213.4" y2="288"/>
				
					<line fill="none" stroke="#EEEFDA" stroke-width="0.3708" stroke-miterlimit="10" x1="199.4" y1="208.5" x2="199.3" y2="290.5"/>
				<line fill="none" stroke="#EEEFDA" stroke-width="0.3708" stroke-miterlimit="10" x1="173" y1="218.1" x2="225.7" y2="280.9"/>
				<line fill="none" stroke="#EEEFDA" stroke-width="0.3708" stroke-miterlimit="10" x1="163.9" y1="229" x2="234.9" y2="270"/>
				<line fill="none" stroke="#EEEFDA" stroke-width="0.3708" stroke-miterlimit="10" x1="159" y1="242.4" x2="239.7" y2="256.6"/>
				<line fill="none" stroke="#EEEFDA" stroke-width="0.3708" stroke-miterlimit="10" x1="159" y1="256.6" x2="239.7" y2="242.4"/>
				<line fill="none" stroke="#EEEFDA" stroke-width="0.3708" stroke-miterlimit="10" x1="163.9" y1="270" x2="234.9" y2="229"/>
				
					<line fill="none" stroke="#EEEFDA" stroke-width="0.3705" stroke-miterlimit="10" x1="173.1" y1="280.9" x2="225.7" y2="218.1"/>
				<line fill="none" stroke="#EEEFDA" stroke-width="0.3708" stroke-miterlimit="10" x1="185.4" y1="288" x2="213.4" y2="211"/>
				<circle fill="#CBEBFD" cx="199.4" cy="249.5" r="2.3"/>
			</g>
			<g clip-path="url(#SVGID_2_)">
				<rect x="149.4" y="299.5" fill="none" width="100" height="100"/>
				<rect x="149.4" y="299.5" fill="#CBEBFD" width="100" height="100"/>
				<path fill="#EEEFDA" d="M199.4,306.8c23.6,0,42.7,19.1,42.7,42.7s-19.1,42.7-42.7,42.7c-23.6,0-42.7-19.1-42.7-42.7
					S175.8,306.8,199.4,306.8 M199.4,304.2c-25,0-45.3,20.3-45.3,45.3c0,25,20.3,45.3,45.3,45.3s45.3-20.3,45.3-45.3
					C244.7,324.5,224.3,304.2,199.4,304.2L199.4,304.2z"/>
				<circle fill="none" stroke="#EEEFDA" stroke-width="0.3708" stroke-miterlimit="10" cx="199.4" cy="349.5" r="41.1"/>
				<circle fill="none" stroke="#EEEFDA" stroke-width="0.3708" stroke-miterlimit="10" cx="199.4" cy="349.5" r="41.1"/>
				<circle fill="none" stroke="#EEEFDA" stroke-width="0.3708" stroke-miterlimit="10" cx="199.4" cy="349.5" r="41.1"/>
				<circle fill="none" stroke="#EEEFDA" stroke-width="0.3708" stroke-miterlimit="10" cx="199.4" cy="349.5" r="41.1"/>
				<circle fill="none" stroke="#EEEFDA" stroke-width="0.3708" stroke-miterlimit="10" cx="199.4" cy="349.5" r="41.1"/>
				<circle fill="none" stroke="#EEEFDA" stroke-width="0.3708" stroke-miterlimit="10" cx="199.4" cy="349.5" r="41.1"/>
				<circle fill="none" stroke="#EEEFDA" stroke-width="0.3708" stroke-miterlimit="10" cx="199.4" cy="349.5" r="41.1"/>
				<circle fill="none" stroke="#EEEFDA" stroke-width="0.3708" stroke-miterlimit="10" cx="199.4" cy="349.5" r="41.1"/>
				<circle fill="none" stroke="#EEEFDA" stroke-width="0.3708" stroke-miterlimit="10" cx="199.4" cy="349.5" r="41.1"/>
				<circle fill="#EEEFDA" cx="199.2" cy="349.5" r="4.3"/>
				<line fill="none" stroke="#EEEFDA" stroke-width="0.3708" stroke-miterlimit="10" x1="185.3" y1="311" x2="213.4" y2="388"/>
				
					<line fill="none" stroke="#EEEFDA" stroke-width="0.3708" stroke-miterlimit="10" x1="199.4" y1="308.5" x2="199.3" y2="390.5"/>
				<line fill="none" stroke="#EEEFDA" stroke-width="0.3708" stroke-miterlimit="10" x1="173" y1="318.1" x2="225.7" y2="380.9"/>
				<line fill="none" stroke="#EEEFDA" stroke-width="0.3708" stroke-miterlimit="10" x1="163.9" y1="329" x2="234.9" y2="370"/>
				<line fill="none" stroke="#EEEFDA" stroke-width="0.3708" stroke-miterlimit="10" x1="159" y1="342.4" x2="239.7" y2="356.6"/>
				<line fill="none" stroke="#EEEFDA" stroke-width="0.3708" stroke-miterlimit="10" x1="159" y1="356.6" x2="239.7" y2="342.4"/>
				<line fill="none" stroke="#EEEFDA" stroke-width="0.3708" stroke-miterlimit="10" x1="163.9" y1="370" x2="234.9" y2="329"/>
				
					<line fill="none" stroke="#EEEFDA" stroke-width="0.3705" stroke-miterlimit="10" x1="173.1" y1="380.9" x2="225.7" y2="318.1"/>
				<line fill="none" stroke="#EEEFDA" stroke-width="0.3708" stroke-miterlimit="10" x1="185.4" y1="388" x2="213.4" y2="311"/>
				<circle fill="#CBEBFD" cx="199.4" cy="349.5" r="2.3"/>
			</g>
			<g clip-path="url(#SVGID_2_)">
				<rect x="49.4" y="-0.5" fill="none" width="100" height="100"/>
				<rect x="49.4" y="-0.5" fill="#CBEBFD" width="100" height="100"/>
				<path fill="#EEEFDA" d="M99.4,6.8c23.6,0,42.7,19.1,42.7,42.7S123,92.2,99.4,92.2c-23.6,0-42.7-19.1-42.7-42.7
					S75.8,6.8,99.4,6.8 M99.4,4.2c-25,0-45.3,20.3-45.3,45.3s20.3,45.3,45.3,45.3s45.3-20.3,45.3-45.3S124.3,4.2,99.4,4.2L99.4,4.2z
					"/>
				<circle fill="none" stroke="#EEEFDA" stroke-width="0.3708" stroke-miterlimit="10" cx="99.4" cy="49.5" r="41.1"/>
				<circle fill="none" stroke="#EEEFDA" stroke-width="0.3708" stroke-miterlimit="10" cx="99.4" cy="49.5" r="41.1"/>
				<circle fill="none" stroke="#EEEFDA" stroke-width="0.3708" stroke-miterlimit="10" cx="99.4" cy="49.5" r="41.1"/>
				<circle fill="none" stroke="#EEEFDA" stroke-width="0.3708" stroke-miterlimit="10" cx="99.4" cy="49.5" r="41.1"/>
				<circle fill="none" stroke="#EEEFDA" stroke-width="0.3708" stroke-miterlimit="10" cx="99.4" cy="49.5" r="41.1"/>
				<circle fill="none" stroke="#EEEFDA" stroke-width="0.3708" stroke-miterlimit="10" cx="99.4" cy="49.5" r="41.1"/>
				<circle fill="none" stroke="#EEEFDA" stroke-width="0.3708" stroke-miterlimit="10" cx="99.4" cy="49.5" r="41.1"/>
				<circle fill="none" stroke="#EEEFDA" stroke-width="0.3708" stroke-miterlimit="10" cx="99.4" cy="49.5" r="41.1"/>
				<circle fill="none" stroke="#EEEFDA" stroke-width="0.3708" stroke-miterlimit="10" cx="99.4" cy="49.5" r="41.1"/>
				<circle fill="#EEEFDA" cx="99.2" cy="49.5" r="4.3"/>
				<line fill="none" stroke="#EEEFDA" stroke-width="0.3708" stroke-miterlimit="10" x1="85.3" y1="11" x2="113.4" y2="88"/>
				<line fill="none" stroke="#EEEFDA" stroke-width="0.3708" stroke-miterlimit="10" x1="99.4" y1="8.5" x2="99.3" y2="90.5"/>
				<line fill="none" stroke="#EEEFDA" stroke-width="0.3708" stroke-miterlimit="10" x1="73" y1="18.1" x2="125.7" y2="80.9"/>
				<line fill="none" stroke="#EEEFDA" stroke-width="0.3708" stroke-miterlimit="10" x1="63.9" y1="29" x2="134.9" y2="70"/>
				<line fill="none" stroke="#EEEFDA" stroke-width="0.3708" stroke-miterlimit="10" x1="59" y1="42.4" x2="139.7" y2="56.6"/>
				<line fill="none" stroke="#EEEFDA" stroke-width="0.3708" stroke-miterlimit="10" x1="59" y1="56.6" x2="139.7" y2="42.4"/>
				<line fill="none" stroke="#EEEFDA" stroke-width="0.3708" stroke-miterlimit="10" x1="63.9" y1="70" x2="134.9" y2="29"/>
				<line fill="none" stroke="#EEEFDA" stroke-width="0.3705" stroke-miterlimit="10" x1="73.1" y1="80.9" x2="125.7" y2="18.1"/>
				<line fill="none" stroke="#EEEFDA" stroke-width="0.3708" stroke-miterlimit="10" x1="85.4" y1="88" x2="113.4" y2="11"/>
				<circle fill="#CBEBFD" cx="99.4" cy="49.5" r="2.3"/>
			</g>
			<g clip-path="url(#SVGID_2_)">
				<rect x="49.4" y="99.5" fill="none" width="100" height="100"/>
				<rect x="49.4" y="99.5" fill="#CBEBFD" width="100" height="100"/>
				<path fill="#EEEFDA" d="M99.4,106.8c23.6,0,42.7,19.1,42.7,42.7s-19.1,42.7-42.7,42.7c-23.6,0-42.7-19.1-42.7-42.7
					S75.8,106.8,99.4,106.8 M99.4,104.2c-25,0-45.3,20.3-45.3,45.3s20.3,45.3,45.3,45.3s45.3-20.3,45.3-45.3S124.3,104.2,99.4,104.2
					L99.4,104.2z"/>
				<circle fill="none" stroke="#EEEFDA" stroke-width="0.3708" stroke-miterlimit="10" cx="99.4" cy="149.5" r="41.1"/>
				<circle fill="none" stroke="#EEEFDA" stroke-width="0.3708" stroke-miterlimit="10" cx="99.4" cy="149.5" r="41.1"/>
				<circle fill="none" stroke="#EEEFDA" stroke-width="0.3708" stroke-miterlimit="10" cx="99.4" cy="149.5" r="41.1"/>
				<circle fill="none" stroke="#EEEFDA" stroke-width="0.3708" stroke-miterlimit="10" cx="99.4" cy="149.5" r="41.1"/>
				<circle fill="none" stroke="#EEEFDA" stroke-width="0.3708" stroke-miterlimit="10" cx="99.4" cy="149.5" r="41.1"/>
				<circle fill="none" stroke="#EEEFDA" stroke-width="0.3708" stroke-miterlimit="10" cx="99.4" cy="149.5" r="41.1"/>
				<circle fill="none" stroke="#EEEFDA" stroke-width="0.3708" stroke-miterlimit="10" cx="99.4" cy="149.5" r="41.1"/>
				<circle fill="none" stroke="#EEEFDA" stroke-width="0.3708" stroke-miterlimit="10" cx="99.4" cy="149.5" r="41.1"/>
				<circle fill="none" stroke="#EEEFDA" stroke-width="0.3708" stroke-miterlimit="10" cx="99.4" cy="149.5" r="41.1"/>
				<circle fill="#EEEFDA" cx="99.2" cy="149.5" r="4.3"/>
				<line fill="none" stroke="#EEEFDA" stroke-width="0.3708" stroke-miterlimit="10" x1="85.3" y1="111" x2="113.4" y2="188"/>
				<line fill="none" stroke="#EEEFDA" stroke-width="0.3708" stroke-miterlimit="10" x1="99.4" y1="108.5" x2="99.3" y2="190.5"/>
				<line fill="none" stroke="#EEEFDA" stroke-width="0.3708" stroke-miterlimit="10" x1="73" y1="118.1" x2="125.7" y2="180.9"/>
				<line fill="none" stroke="#EEEFDA" stroke-width="0.3708" stroke-miterlimit="10" x1="63.9" y1="129" x2="134.9" y2="170"/>
				<line fill="none" stroke="#EEEFDA" stroke-width="0.3708" stroke-miterlimit="10" x1="59" y1="142.4" x2="139.7" y2="156.6"/>
				<line fill="none" stroke="#EEEFDA" stroke-width="0.3708" stroke-miterlimit="10" x1="59" y1="156.6" x2="139.7" y2="142.4"/>
				<line fill="none" stroke="#EEEFDA" stroke-width="0.3708" stroke-miterlimit="10" x1="63.9" y1="170" x2="134.9" y2="129"/>
				<line fill="none" stroke="#EEEFDA" stroke-width="0.3705" stroke-miterlimit="10" x1="73.1" y1="180.9" x2="125.7" y2="118.1"/>
				<line fill="none" stroke="#EEEFDA" stroke-width="0.3708" stroke-miterlimit="10" x1="85.4" y1="188" x2="113.4" y2="111"/>
				<circle fill="#CBEBFD" cx="99.4" cy="149.5" r="2.3"/>
			</g>
			<g clip-path="url(#SVGID_2_)">
				<rect x="49.4" y="199.5" fill="none" width="100" height="100"/>
				<rect x="49.4" y="199.5" fill="#CBEBFD" width="100" height="100"/>
				<path fill="#EEEFDA" d="M99.4,206.8c23.6,0,42.7,19.1,42.7,42.7s-19.1,42.7-42.7,42.7c-23.6,0-42.7-19.1-42.7-42.7
					S75.8,206.8,99.4,206.8 M99.4,204.2c-25,0-45.3,20.3-45.3,45.3s20.3,45.3,45.3,45.3s45.3-20.3,45.3-45.3S124.3,204.2,99.4,204.2
					L99.4,204.2z"/>
				<circle fill="none" stroke="#EEEFDA" stroke-width="0.3708" stroke-miterlimit="10" cx="99.4" cy="249.5" r="41.1"/>
				<circle fill="none" stroke="#EEEFDA" stroke-width="0.3708" stroke-miterlimit="10" cx="99.4" cy="249.5" r="41.1"/>
				<circle fill="none" stroke="#EEEFDA" stroke-width="0.3708" stroke-miterlimit="10" cx="99.4" cy="249.5" r="41.1"/>
				<circle fill="none" stroke="#EEEFDA" stroke-width="0.3708" stroke-miterlimit="10" cx="99.4" cy="249.5" r="41.1"/>
				<circle fill="none" stroke="#EEEFDA" stroke-width="0.3708" stroke-miterlimit="10" cx="99.4" cy="249.5" r="41.1"/>
				<circle fill="none" stroke="#EEEFDA" stroke-width="0.3708" stroke-miterlimit="10" cx="99.4" cy="249.5" r="41.1"/>
				<circle fill="none" stroke="#EEEFDA" stroke-width="0.3708" stroke-miterlimit="10" cx="99.4" cy="249.5" r="41.1"/>
				<circle fill="none" stroke="#EEEFDA" stroke-width="0.3708" stroke-miterlimit="10" cx="99.4" cy="249.5" r="41.1"/>
				<circle fill="none" stroke="#EEEFDA" stroke-width="0.3708" stroke-miterlimit="10" cx="99.4" cy="249.5" r="41.1"/>
				<circle fill="#EEEFDA" cx="99.2" cy="249.5" r="4.3"/>
				<line fill="none" stroke="#EEEFDA" stroke-width="0.3708" stroke-miterlimit="10" x1="85.3" y1="211" x2="113.4" y2="288"/>
				<line fill="none" stroke="#EEEFDA" stroke-width="0.3708" stroke-miterlimit="10" x1="99.4" y1="208.5" x2="99.3" y2="290.5"/>
				<line fill="none" stroke="#EEEFDA" stroke-width="0.3708" stroke-miterlimit="10" x1="73" y1="218.1" x2="125.7" y2="280.9"/>
				<line fill="none" stroke="#EEEFDA" stroke-width="0.3708" stroke-miterlimit="10" x1="63.9" y1="229" x2="134.9" y2="270"/>
				<line fill="none" stroke="#EEEFDA" stroke-width="0.3708" stroke-miterlimit="10" x1="59" y1="242.4" x2="139.7" y2="256.6"/>
				<line fill="none" stroke="#EEEFDA" stroke-width="0.3708" stroke-miterlimit="10" x1="59" y1="256.6" x2="139.7" y2="242.4"/>
				<line fill="none" stroke="#EEEFDA" stroke-width="0.3708" stroke-miterlimit="10" x1="63.9" y1="270" x2="134.9" y2="229"/>
				<line fill="none" stroke="#EEEFDA" stroke-width="0.3705" stroke-miterlimit="10" x1="73.1" y1="280.9" x2="125.7" y2="218.1"/>
				<line fill="none" stroke="#EEEFDA" stroke-width="0.3708" stroke-miterlimit="10" x1="85.4" y1="288" x2="113.4" y2="211"/>
				<circle fill="#CBEBFD" cx="99.4" cy="249.5" r="2.3"/>
			</g>
			<g clip-path="url(#SVGID_2_)">
				<rect x="49.4" y="299.5" fill="none" width="100" height="100"/>
				<rect x="49.4" y="299.5" fill="#CBEBFD" width="100" height="100"/>
				<path fill="#EEEFDA" d="M99.4,306.8c23.6,0,42.7,19.1,42.7,42.7s-19.1,42.7-42.7,42.7c-23.6,0-42.7-19.1-42.7-42.7
					S75.8,306.8,99.4,306.8 M99.4,304.2c-25,0-45.3,20.3-45.3,45.3c0,25,20.3,45.3,45.3,45.3s45.3-20.3,45.3-45.3
					C144.7,324.5,124.3,304.2,99.4,304.2L99.4,304.2z"/>
				<circle fill="none" stroke="#EEEFDA" stroke-width="0.3708" stroke-miterlimit="10" cx="99.4" cy="349.5" r="41.1"/>
				<circle fill="none" stroke="#EEEFDA" stroke-width="0.3708" stroke-miterlimit="10" cx="99.4" cy="349.5" r="41.1"/>
				<circle fill="none" stroke="#EEEFDA" stroke-width="0.3708" stroke-miterlimit="10" cx="99.4" cy="349.5" r="41.1"/>
				<circle fill="none" stroke="#EEEFDA" stroke-width="0.3708" stroke-miterlimit="10" cx="99.4" cy="349.5" r="41.1"/>
				<circle fill="none" stroke="#EEEFDA" stroke-width="0.3708" stroke-miterlimit="10" cx="99.4" cy="349.5" r="41.1"/>
				<circle fill="none" stroke="#EEEFDA" stroke-width="0.3708" stroke-miterlimit="10" cx="99.4" cy="349.5" r="41.1"/>
				<circle fill="none" stroke="#EEEFDA" stroke-width="0.3708" stroke-miterlimit="10" cx="99.4" cy="349.5" r="41.1"/>
				<circle fill="none" stroke="#EEEFDA" stroke-width="0.3708" stroke-miterlimit="10" cx="99.4" cy="349.5" r="41.1"/>
				<circle fill="none" stroke="#EEEFDA" stroke-width="0.3708" stroke-miterlimit="10" cx="99.4" cy="349.5" r="41.1"/>
				<circle fill="#EEEFDA" cx="99.2" cy="349.5" r="4.3"/>
				<line fill="none" stroke="#EEEFDA" stroke-width="0.3708" stroke-miterlimit="10" x1="85.3" y1="311" x2="113.4" y2="388"/>
				<line fill="none" stroke="#EEEFDA" stroke-width="0.3708" stroke-miterlimit="10" x1="99.4" y1="308.5" x2="99.3" y2="390.5"/>
				<line fill="none" stroke="#EEEFDA" stroke-width="0.3708" stroke-miterlimit="10" x1="73" y1="318.1" x2="125.7" y2="380.9"/>
				<line fill="none" stroke="#EEEFDA" stroke-width="0.3708" stroke-miterlimit="10" x1="63.9" y1="329" x2="134.9" y2="370"/>
				<line fill="none" stroke="#EEEFDA" stroke-width="0.3708" stroke-miterlimit="10" x1="59" y1="342.4" x2="139.7" y2="356.6"/>
				<line fill="none" stroke="#EEEFDA" stroke-width="0.3708" stroke-miterlimit="10" x1="59" y1="356.6" x2="139.7" y2="342.4"/>
				<line fill="none" stroke="#EEEFDA" stroke-width="0.3708" stroke-miterlimit="10" x1="63.9" y1="370" x2="134.9" y2="329"/>
				<line fill="none" stroke="#EEEFDA" stroke-width="0.3705" stroke-miterlimit="10" x1="73.1" y1="380.9" x2="125.7" y2="318.1"/>
				<line fill="none" stroke="#EEEFDA" stroke-width="0.3708" stroke-miterlimit="10" x1="85.4" y1="388" x2="113.4" y2="311"/>
				<circle fill="#CBEBFD" cx="99.4" cy="349.5" r="2.3"/>
			</g>
			<g clip-path="url(#SVGID_2_)">
				<rect x="-50.6" y="-0.5" fill="none" width="100" height="100"/>
				<rect x="-50.6" y="-0.5" fill="#CBEBFD" width="100" height="100"/>
				<path fill="#EEEFDA" d="M-0.6,6.8c23.6,0,42.7,19.1,42.7,42.7S23,92.2-0.6,92.2c-23.6,0-42.7-19.1-42.7-42.7S-24.2,6.8-0.6,6.8
					 M-0.6,4.2c-25,0-45.3,20.3-45.3,45.3s20.3,45.3,45.3,45.3s45.3-20.3,45.3-45.3S24.3,4.2-0.6,4.2L-0.6,4.2z"/>
				<circle fill="none" stroke="#EEEFDA" stroke-width="0.3708" stroke-miterlimit="10" cx="-0.6" cy="49.5" r="41.1"/>
				<circle fill="none" stroke="#EEEFDA" stroke-width="0.3708" stroke-miterlimit="10" cx="-0.6" cy="49.5" r="41.1"/>
				<circle fill="none" stroke="#EEEFDA" stroke-width="0.3708" stroke-miterlimit="10" cx="-0.6" cy="49.5" r="41.1"/>
				<circle fill="none" stroke="#EEEFDA" stroke-width="0.3708" stroke-miterlimit="10" cx="-0.6" cy="49.5" r="41.1"/>
				<circle fill="none" stroke="#EEEFDA" stroke-width="0.3708" stroke-miterlimit="10" cx="-0.6" cy="49.5" r="41.1"/>
				<circle fill="none" stroke="#EEEFDA" stroke-width="0.3708" stroke-miterlimit="10" cx="-0.6" cy="49.5" r="41.1"/>
				<circle fill="none" stroke="#EEEFDA" stroke-width="0.3708" stroke-miterlimit="10" cx="-0.6" cy="49.5" r="41.1"/>
				<circle fill="none" stroke="#EEEFDA" stroke-width="0.3708" stroke-miterlimit="10" cx="-0.6" cy="49.5" r="41.1"/>
				<circle fill="none" stroke="#EEEFDA" stroke-width="0.3708" stroke-miterlimit="10" cx="-0.6" cy="49.5" r="41.1"/>
				<circle fill="#EEEFDA" cx="-0.8" cy="49.5" r="4.3"/>
				<line fill="none" stroke="#EEEFDA" stroke-width="0.3708" stroke-miterlimit="10" x1="-14.7" y1="11" x2="13.4" y2="88"/>
				<line fill="none" stroke="#EEEFDA" stroke-width="0.3708" stroke-miterlimit="10" x1="-0.6" y1="8.5" x2="-0.7" y2="90.5"/>
				<line fill="none" stroke="#EEEFDA" stroke-width="0.3708" stroke-miterlimit="10" x1="-27" y1="18.1" x2="25.7" y2="80.9"/>
				<line fill="none" stroke="#EEEFDA" stroke-width="0.3708" stroke-miterlimit="10" x1="-36.1" y1="29" x2="34.9" y2="70"/>
				<line fill="none" stroke="#EEEFDA" stroke-width="0.3708" stroke-miterlimit="10" x1="-41" y1="42.4" x2="39.7" y2="56.6"/>
				<line fill="none" stroke="#EEEFDA" stroke-width="0.3708" stroke-miterlimit="10" x1="-41" y1="56.6" x2="39.7" y2="42.4"/>
				<line fill="none" stroke="#EEEFDA" stroke-width="0.3708" stroke-miterlimit="10" x1="-36.1" y1="70" x2="34.9" y2="29"/>
				<line fill="none" stroke="#EEEFDA" stroke-width="0.3705" stroke-miterlimit="10" x1="-26.9" y1="80.9" x2="25.7" y2="18.1"/>
				<line fill="none" stroke="#EEEFDA" stroke-width="0.3708" stroke-miterlimit="10" x1="-14.6" y1="88" x2="13.4" y2="11"/>
				<circle fill="#CBEBFD" cx="-0.6" cy="49.5" r="2.3"/>
			</g>
			<g clip-path="url(#SVGID_2_)">
				<rect x="-50.6" y="99.5" fill="none" width="100" height="100"/>
				<rect x="-50.6" y="99.5" fill="#CBEBFD" width="100" height="100"/>
				<path fill="#EEEFDA" d="M-0.6,106.8c23.6,0,42.7,19.1,42.7,42.7S23,192.2-0.6,192.2c-23.6,0-42.7-19.1-42.7-42.7
					S-24.2,106.8-0.6,106.8 M-0.6,104.2c-25,0-45.3,20.3-45.3,45.3s20.3,45.3,45.3,45.3s45.3-20.3,45.3-45.3S24.3,104.2-0.6,104.2
					L-0.6,104.2z"/>
				<circle fill="none" stroke="#EEEFDA" stroke-width="0.3708" stroke-miterlimit="10" cx="-0.6" cy="149.5" r="41.1"/>
				<circle fill="none" stroke="#EEEFDA" stroke-width="0.3708" stroke-miterlimit="10" cx="-0.6" cy="149.5" r="41.1"/>
				<circle fill="none" stroke="#EEEFDA" stroke-width="0.3708" stroke-miterlimit="10" cx="-0.6" cy="149.5" r="41.1"/>
				<circle fill="none" stroke="#EEEFDA" stroke-width="0.3708" stroke-miterlimit="10" cx="-0.6" cy="149.5" r="41.1"/>
				<circle fill="none" stroke="#EEEFDA" stroke-width="0.3708" stroke-miterlimit="10" cx="-0.6" cy="149.5" r="41.1"/>
				<circle fill="none" stroke="#EEEFDA" stroke-width="0.3708" stroke-miterlimit="10" cx="-0.6" cy="149.5" r="41.1"/>
				<circle fill="none" stroke="#EEEFDA" stroke-width="0.3708" stroke-miterlimit="10" cx="-0.6" cy="149.5" r="41.1"/>
				<circle fill="none" stroke="#EEEFDA" stroke-width="0.3708" stroke-miterlimit="10" cx="-0.6" cy="149.5" r="41.1"/>
				<circle fill="none" stroke="#EEEFDA" stroke-width="0.3708" stroke-miterlimit="10" cx="-0.6" cy="149.5" r="41.1"/>
				<circle fill="#EEEFDA" cx="-0.8" cy="149.5" r="4.3"/>
				<line fill="none" stroke="#EEEFDA" stroke-width="0.3708" stroke-miterlimit="10" x1="-14.7" y1="111" x2="13.4" y2="188"/>
				<line fill="none" stroke="#EEEFDA" stroke-width="0.3708" stroke-miterlimit="10" x1="-0.6" y1="108.5" x2="-0.7" y2="190.5"/>
				<line fill="none" stroke="#EEEFDA" stroke-width="0.3708" stroke-miterlimit="10" x1="-27" y1="118.1" x2="25.7" y2="180.9"/>
				<line fill="none" stroke="#EEEFDA" stroke-width="0.3708" stroke-miterlimit="10" x1="-36.1" y1="129" x2="34.9" y2="170"/>
				<line fill="none" stroke="#EEEFDA" stroke-width="0.3708" stroke-miterlimit="10" x1="-41" y1="142.4" x2="39.7" y2="156.6"/>
				<line fill="none" stroke="#EEEFDA" stroke-width="0.3708" stroke-miterlimit="10" x1="-41" y1="156.6" x2="39.7" y2="142.4"/>
				<line fill="none" stroke="#EEEFDA" stroke-width="0.3708" stroke-miterlimit="10" x1="-36.1" y1="170" x2="34.9" y2="129"/>
				<line fill="none" stroke="#EEEFDA" stroke-width="0.3705" stroke-miterlimit="10" x1="-26.9" y1="180.9" x2="25.7" y2="118.1"/>
				<line fill="none" stroke="#EEEFDA" stroke-width="0.3708" stroke-miterlimit="10" x1="-14.6" y1="188" x2="13.4" y2="111"/>
				<circle fill="#CBEBFD" cx="-0.6" cy="149.5" r="2.3"/>
			</g>
			<g clip-path="url(#SVGID_2_)">
				<rect x="-50.6" y="199.5" fill="none" width="100" height="100"/>
				<rect x="-50.6" y="199.5" fill="#CBEBFD" width="100" height="100"/>
				<path fill="#EEEFDA" d="M-0.6,206.8c23.6,0,42.7,19.1,42.7,42.7S23,292.2-0.6,292.2c-23.6,0-42.7-19.1-42.7-42.7
					S-24.2,206.8-0.6,206.8 M-0.6,204.2c-25,0-45.3,20.3-45.3,45.3s20.3,45.3,45.3,45.3s45.3-20.3,45.3-45.3S24.3,204.2-0.6,204.2
					L-0.6,204.2z"/>
				<circle fill="none" stroke="#EEEFDA" stroke-width="0.3708" stroke-miterlimit="10" cx="-0.6" cy="249.5" r="41.1"/>
				<circle fill="none" stroke="#EEEFDA" stroke-width="0.3708" stroke-miterlimit="10" cx="-0.6" cy="249.5" r="41.1"/>
				<circle fill="none" stroke="#EEEFDA" stroke-width="0.3708" stroke-miterlimit="10" cx="-0.6" cy="249.5" r="41.1"/>
				<circle fill="none" stroke="#EEEFDA" stroke-width="0.3708" stroke-miterlimit="10" cx="-0.6" cy="249.5" r="41.1"/>
				<circle fill="none" stroke="#EEEFDA" stroke-width="0.3708" stroke-miterlimit="10" cx="-0.6" cy="249.5" r="41.1"/>
				<circle fill="none" stroke="#EEEFDA" stroke-width="0.3708" stroke-miterlimit="10" cx="-0.6" cy="249.5" r="41.1"/>
				<circle fill="none" stroke="#EEEFDA" stroke-width="0.3708" stroke-miterlimit="10" cx="-0.6" cy="249.5" r="41.1"/>
				<circle fill="none" stroke="#EEEFDA" stroke-width="0.3708" stroke-miterlimit="10" cx="-0.6" cy="249.5" r="41.1"/>
				<circle fill="none" stroke="#EEEFDA" stroke-width="0.3708" stroke-miterlimit="10" cx="-0.6" cy="249.5" r="41.1"/>
				<circle fill="#EEEFDA" cx="-0.8" cy="249.5" r="4.3"/>
				<line fill="none" stroke="#EEEFDA" stroke-width="0.3708" stroke-miterlimit="10" x1="-14.7" y1="211" x2="13.4" y2="288"/>
				<line fill="none" stroke="#EEEFDA" stroke-width="0.3708" stroke-miterlimit="10" x1="-0.6" y1="208.5" x2="-0.7" y2="290.5"/>
				<line fill="none" stroke="#EEEFDA" stroke-width="0.3708" stroke-miterlimit="10" x1="-27" y1="218.1" x2="25.7" y2="280.9"/>
				<line fill="none" stroke="#EEEFDA" stroke-width="0.3708" stroke-miterlimit="10" x1="-36.1" y1="229" x2="34.9" y2="270"/>
				<line fill="none" stroke="#EEEFDA" stroke-width="0.3708" stroke-miterlimit="10" x1="-41" y1="242.4" x2="39.7" y2="256.6"/>
				<line fill="none" stroke="#EEEFDA" stroke-width="0.3708" stroke-miterlimit="10" x1="-41" y1="256.6" x2="39.7" y2="242.4"/>
				<line fill="none" stroke="#EEEFDA" stroke-width="0.3708" stroke-miterlimit="10" x1="-36.1" y1="270" x2="34.9" y2="229"/>
				<line fill="none" stroke="#EEEFDA" stroke-width="0.3705" stroke-miterlimit="10" x1="-26.9" y1="280.9" x2="25.7" y2="218.1"/>
				<line fill="none" stroke="#EEEFDA" stroke-width="0.3708" stroke-miterlimit="10" x1="-14.6" y1="288" x2="13.4" y2="211"/>
				<circle fill="#CBEBFD" cx="-0.6" cy="249.5" r="2.3"/>
			</g>
			<g clip-path="url(#SVGID_2_)">
				<rect x="-50.6" y="299.5" fill="none" width="100" height="100"/>
				<rect x="-50.6" y="299.5" fill="#CBEBFD" width="100" height="100"/>
				<path fill="#EEEFDA" d="M-0.6,306.8c23.6,0,42.7,19.1,42.7,42.7S23,392.2-0.6,392.2c-23.6,0-42.7-19.1-42.7-42.7
					S-24.2,306.8-0.6,306.8 M-0.6,304.2c-25,0-45.3,20.3-45.3,45.3c0,25,20.3,45.3,45.3,45.3s45.3-20.3,45.3-45.3
					C44.7,324.5,24.3,304.2-0.6,304.2L-0.6,304.2z"/>
				<circle fill="none" stroke="#EEEFDA" stroke-width="0.3708" stroke-miterlimit="10" cx="-0.6" cy="349.5" r="41.1"/>
				<circle fill="none" stroke="#EEEFDA" stroke-width="0.3708" stroke-miterlimit="10" cx="-0.6" cy="349.5" r="41.1"/>
				<circle fill="none" stroke="#EEEFDA" stroke-width="0.3708" stroke-miterlimit="10" cx="-0.6" cy="349.5" r="41.1"/>
				<circle fill="none" stroke="#EEEFDA" stroke-width="0.3708" stroke-miterlimit="10" cx="-0.6" cy="349.5" r="41.1"/>
				<circle fill="none" stroke="#EEEFDA" stroke-width="0.3708" stroke-miterlimit="10" cx="-0.6" cy="349.5" r="41.1"/>
				<circle fill="none" stroke="#EEEFDA" stroke-width="0.3708" stroke-miterlimit="10" cx="-0.6" cy="349.5" r="41.1"/>
				<circle fill="none" stroke="#EEEFDA" stroke-width="0.3708" stroke-miterlimit="10" cx="-0.6" cy="349.5" r="41.1"/>
				<circle fill="none" stroke="#EEEFDA" stroke-width="0.3708" stroke-miterlimit="10" cx="-0.6" cy="349.5" r="41.1"/>
				<circle fill="none" stroke="#EEEFDA" stroke-width="0.3708" stroke-miterlimit="10" cx="-0.6" cy="349.5" r="41.1"/>
				<circle fill="#EEEFDA" cx="-0.8" cy="349.5" r="4.3"/>
				<line fill="none" stroke="#EEEFDA" stroke-width="0.3708" stroke-miterlimit="10" x1="-14.7" y1="311" x2="13.4" y2="388"/>
				<line fill="none" stroke="#EEEFDA" stroke-width="0.3708" stroke-miterlimit="10" x1="-0.6" y1="308.5" x2="-0.7" y2="390.5"/>
				<line fill="none" stroke="#EEEFDA" stroke-width="0.3708" stroke-miterlimit="10" x1="-27" y1="318.1" x2="25.7" y2="380.9"/>
				<line fill="none" stroke="#EEEFDA" stroke-width="0.3708" stroke-miterlimit="10" x1="-36.1" y1="329" x2="34.9" y2="370"/>
				<line fill="none" stroke="#EEEFDA" stroke-width="0.3708" stroke-miterlimit="10" x1="-41" y1="342.4" x2="39.7" y2="356.6"/>
				<line fill="none" stroke="#EEEFDA" stroke-width="0.3708" stroke-miterlimit="10" x1="-41" y1="356.6" x2="39.7" y2="342.4"/>
				<line fill="none" stroke="#EEEFDA" stroke-width="0.3708" stroke-miterlimit="10" x1="-36.1" y1="370" x2="34.9" y2="329"/>
				<line fill="none" stroke="#EEEFDA" stroke-width="0.3705" stroke-miterlimit="10" x1="-26.9" y1="380.9" x2="25.7" y2="318.1"/>
				<line fill="none" stroke="#EEEFDA" stroke-width="0.3708" stroke-miterlimit="10" x1="-14.6" y1="388" x2="13.4" y2="311"/>
				<circle fill="#CBEBFD" cx="-0.6" cy="349.5" r="2.3"/>
			</g>
		</g>
	</g>
	<g>
		<rect x="0" y="0" fill="#CBEBFD" width="300" height="2"/>
	</g>
</g>
<g id="Layer_3">
</g>
</svg>
